<?xml version="1.0" encoding="utf-8"?>
<!-- Generator: Adobe Illustrator 23.0.1, SVG Export Plug-In . SVG Version: 6.00 Build 0)  -->
<svg version="1.1" id="Layer_1" xmlns="http://www.w3.org/2000/svg" xmlns:xlink="http://www.w3.org/1999/xlink" x="0px" y="0px"
	 viewBox="0 0 500 500" style="enable-background:new 0 0 500 500;" xml:space="preserve">
<style type="text/css">
	.st0{fill:#FFFFFF;}
</style>
<g>
	<g>
		<path class="st0" d="M163.03,359.21c-21.74,0-43.46-6.32-62.01-18.97c-0.95-0.65-1.45-1.01-1.45-1.01l0,0
			c0.03,0.02,43.52,12.68,63.96,12.58c20.11-0.09,62.95-12.56,62.98-12.58l0,0c0,0-0.5,0.37-1.45,1.01
			C206.5,352.89,184.76,359.21,163.03,359.21z"/>
	</g>
	<g>
		<path class="st0" d="M356,16.05l-92.94,7.13v303.66h-7.41V23.59C143.67,25.57,53.2,117.27,53.2,229.69
			c0,111.84,89.51,210.31,200.64,213.48c-115.21-2.93-208.05-97.55-208.05-213.48c0-116.28,93.44-211.16,209.16-213.5
			c0.09-0.02,0.2-0.02,0.3,0l7.8-0.02L356,16.05z"/>
		<path class="st0" d="M263.05,16.14v0.04l-7.8,0.02c1.35-0.04,2.72-0.06,4.09-0.06H263.05z"/>
	</g>
	<g>
		<path class="st0" d="M500,316.33L500,316.33c-47.21,129.72-198.13,194.31-327.85,147.1C42.43,416.21-31.65,269.73,15.56,140l0,0
			c-48.61,133.56,20.5,281.77,154.06,330.38S451.39,449.89,500,316.33z"/>
	</g>
	<g>
		<rect x="352" y="127.72" class="st0" width="7.41" height="173.87"/>
	</g>
	<g>
		<rect x="159.32" y="127.72" class="st0" width="7.41" height="173.87"/>
	</g>
	<g>
		<path class="st0" d="M104.52,308.03h-9.33c0.29-0.34,27.93-31.71,41.48-112.98c4.27-25.63,8.36-48.01,14.89-93.82l0,0
			c-1.74,39.84-5.45,72.57-10.06,99.28C127.67,280.65,105.75,306.64,104.52,308.03z"/>
	</g>
	<g>
		<path class="st0" d="M221.53,308.03h9.33c-0.29-0.34-27.93-31.71-41.48-112.98c-4.27-25.63-8.36-48.01-14.89-93.82l0,0
			c1.74,39.84,5.45,72.57,10.06,99.28C198.38,280.65,220.3,306.64,221.53,308.03z"/>
	</g>
	<g>
		<path class="st0" d="M355.71,359.21c21.74,0,43.46-6.32,62.01-18.97c0.95-0.65,1.45-1.01,1.45-1.01l0,0
			c-0.03,0.02-43.52,12.68-63.96,12.58c-20.11-0.09-62.95-12.56-62.98-12.58l0,0c0,0,0.5,0.37,1.45,1.01
			C312.24,352.89,333.98,359.21,355.71,359.21z"/>
	</g>
	<g>
		<path class="st0" d="M414.21,308.03h9.33c-0.29-0.34-27.93-31.71-41.48-112.98c-4.27-25.63-8.36-48.01-14.89-93.82l0,0
			c1.74,39.84,5.45,72.57,10.06,99.28C391.06,280.65,412.99,306.64,414.21,308.03z"/>
	</g>
	<g>
		<path class="st0" d="M297.21,308.03h-9.33c0.29-0.34,27.93-31.71,41.48-112.98c4.27-25.63,8.36-48.01,14.89-93.82l0,0
			c-1.74,39.84-5.45,72.57-10.06,99.28C320.36,280.65,298.43,306.64,297.21,308.03z"/>
	</g>
	<path class="st0" d="M134.05,199.54"/>
</g>
</svg>
